<svg width="916" height="1457" viewBox="0 0 916 1457" fill="none" xmlns="http://www.w3.org/2000/svg">
<g clip-path="url(#clip0_235_2)">
<path d="M613.54 376.541C613.54 376.018 613.54 375.515 613.54 375.011C621.53 372.764 629.43 370.207 637.53 368.444C653.21 365.295 669.27 364.44 685.19 365.906C686.26 369.351 686.79 372.937 686.78 376.541C686.77 386.25 682.9 395.557 676.03 402.42C669.16 409.284 659.85 413.144 650.13 413.154C640.43 413.134 631.13 409.268 624.27 402.406C617.41 395.543 613.55 386.242 613.54 376.541Z" fill="white"/>
<path d="M750.76 384.697C741.58 379.426 730.85 377.489 720.41 379.215C719.07 392.748 714.62 405.789 707.4 417.319C703.6 423.643 698.7 429.244 692.94 433.863C673.56 448.915 645.96 447.036 621.95 441.611C614.2 439.849 606.45 437.737 599.78 433.553C592.47 428.981 586.87 422.22 580.55 416.35C574.24 410.481 566.54 405.27 557.92 405.057L563.73 449.612C558.42 415.44 533.13 386.382 500.86 373.403L518.9 374.062C510.6 367.703 504.4 358.988 501.13 349.056C497.85 339.124 497.65 328.436 500.55 318.387C503.69 331.947 508.01 345.663 515.78 357.325C523.55 368.986 535.16 378.633 548.83 381.655C558.27 383.748 568.07 382.644 577.67 381.52C583.83 380.803 590.01 380.086 596.12 379.06C596.76 392.943 602.73 406.045 612.79 415.646C622.84 425.248 636.21 430.613 650.11 430.628C664.45 430.617 678.2 424.92 688.34 414.787C698.48 404.654 704.19 390.913 704.2 376.58C704.21 373.673 703.98 370.771 703.51 367.901C711.38 368.967 719.21 370.246 726.98 371.582C736.36 373.151 747.17 375.941 750.76 384.697Z" fill="white"/>
<path d="M718.66 135.265C717.66 133.502 750.18 103.786 765.91 99.8528H734.42C734.42 99.8528 777.74 70.6017 791.23 60.4897C794.04 82.4187 824.99 158.318 800.8 212.849C764.4 181.932 727.19 149.891 718.66 135.265Z" fill="white"/>
<path d="M473.532 1001.88C595.28 995.28 728.92 939.49 806.89 843.89C848.38 792.76 871.81 729.36 873.52 663.55C876.13 553.368 858.61 439.694 855.28 329.526C855.13 324.857 855.03 314.92 855.07 310.154C857.01 239.931 840.98 170.987 833.4 101.422C832 88.6538 831.35 75.8138 831.46 62.9688C831.85 50.2228 832.95 36.9528 838.85 25.4658C833.71 37.2238 833.46 50.3198 833.83 62.9498C835.76 101.19 844.76 138.5 851.6 176.159C859.35 217.073 866.5 258.644 867.24 300.488C867.43 309.011 867.68 320.518 868.17 329.003C874.72 442.755 894.68 559.625 890.48 673.82C886.6 739.36 861.72 803.61 819.12 853.69C738.16 950.18 598.17 1004.56 473.571 1001.73L473.532 1001.88Z" fill="white"/>
<path d="M440.487 1001.88C315.925 1004.71 175.916 950.34 94.9421 853.84C52.3041 803.79 27.38 739.55 23.581 673.98C19.356 559.683 39.338 442.832 45.889 329.158C46.393 320.75 46.606 309.089 46.819 300.643C47.555 258.799 54.7271 217.227 62.4601 176.314C69.2821 138.655 78.236 101.345 80.232 63.1051C80.6 50.4751 80.348 37.3981 75.212 25.6201C81.027 37.1081 82.209 50.3971 82.597 63.1241C82.717 75.9691 82.0701 88.8101 80.6581 101.578C73.1001 171.142 57.1101 240.086 59.0101 310.309C59.0101 315.171 59.01 324.76 58.777 329.681C55.463 439.887 37.9421 553.503 40.5591 663.71C42.2591 729.51 65.663 792.9 107.133 844.02C185.142 939.62 318.793 995.41 440.487 1002.02V1001.88Z" fill="white"/>
<path d="M309.336 376.541C309.336 376.018 309.336 375.515 309.336 375.011C301.351 372.764 293.424 370.207 285.343 368.444C269.663 365.296 253.609 364.441 237.684 365.906C236.612 369.349 236.076 372.936 236.095 376.541C236.111 386.25 239.977 395.557 246.848 402.42C253.718 409.284 263.031 413.144 272.745 413.154C282.448 413.129 291.747 409.262 298.604 402.4C305.462 395.538 309.321 386.24 309.336 376.541Z" fill="white"/>
<path d="M172.118 384.697C181.299 379.425 192.022 377.488 202.469 379.215C203.808 392.748 208.258 405.789 215.474 417.319C219.265 423.647 224.154 429.249 229.912 433.863C249.293 448.915 276.892 447.036 300.925 441.611C308.677 439.849 316.43 437.737 323.097 433.553C330.403 428.981 336.004 422.22 342.303 416.35C348.602 410.481 356.335 405.27 364.96 405.057L359.145 449.612C364.456 415.44 389.729 386.382 422.017 373.403L403.974 374.062C412.278 367.702 418.471 358.987 421.742 349.054C425.013 339.122 425.21 328.433 422.308 318.387C419.168 331.947 414.866 345.663 407.094 357.325C399.322 368.986 387.713 378.633 374.146 381.655C364.708 383.748 354.901 382.644 345.307 381.52C339.144 380.803 332.961 380.086 326.837 379.06C326.199 392.943 320.235 406.047 310.184 415.651C300.132 425.254 286.766 430.617 272.861 430.628C258.521 430.617 244.771 424.92 234.63 414.787C224.488 404.654 218.784 390.913 218.768 376.58C218.765 373.673 218.998 370.771 219.466 367.901C211.597 368.967 203.767 370.246 195.996 371.582C186.518 373.151 175.704 375.941 172.118 384.697Z" fill="white"/>
<path d="M204.116 135.265C205.124 133.502 172.622 103.786 156.865 99.8528H188.359C188.359 99.8528 145.062 70.6017 131.553 60.4897C128.743 82.4187 97.811 158.318 121.999 212.849C158.551 181.932 195.685 149.891 204.116 135.265Z" fill="white"/>
<path d="M400.136 482.583C415.234 477.352 430.138 472.742 446.263 472.645C462.388 472.548 477.62 473.633 492.93 478.011C497.12 479.212 501.27 480.549 505.32 482.079C509.37 483.609 513.94 486.283 518.3 486.36C518.84 486.342 519.37 486.167 519.81 485.858C520.26 485.548 520.6 485.116 520.81 484.614C521.01 484.113 521.07 483.563 520.97 483.03C520.87 482.498 520.61 482.006 520.24 481.614C517.82 478.611 513.13 476.965 509.62 475.589C506.11 474.214 501.87 472.761 497.99 471.715C489.97 469.441 481.76 467.892 473.455 467.085C465.335 466.204 457.147 466.146 449.015 466.911C440.834 467.863 432.727 469.371 424.75 471.424C415.877 473.403 407.315 476.583 399.303 480.878C398.353 481.401 398.993 483.028 400.039 482.66L400.136 482.583Z" fill="white"/>
<path d="M631.04 533.763C598.37 515.98 568.65 512.454 544.54 509.451C544.78 513.891 543.4 518.267 540.67 521.772C528.36 537.27 483.22 509.471 486.4 524.232C489.58 538.993 501.62 535.72 515.34 540.64C529.06 545.561 511.85 598.891 469.172 598.891C467.368 598.897 465.576 598.615 463.861 598.058C463.861 599.86 463.706 601.681 463.609 603.463C463.415 606.834 463.047 610.204 462.834 613.575C462.388 620.433 462.098 627.31 462.156 634.187C462.214 641.06 462.601 647.92 463.299 654.74C463.532 656.83 463.764 658.92 464.055 661.02C466.497 664.45 468.338 668.2 470.606 671.73C472.832 675.21 475.273 678.55 477.91 681.73C483.47 688.56 490 694.54 497.29 699.47C503.65 703.85 510.96 706.64 518.61 707.63C526.87 708.28 535.18 707.84 543.32 706.33C558.17 704.18 572.63 699.89 586.23 693.58C599.76 686.94 612.09 678.1 622.73 667.43C627.69 662.51 632.42 655.19 639.4 653.17C641.21 652.68 643.12 652.68 644.94 653.18C646.75 653.67 648.4 654.65 649.71 656C651.03 657.15 651.88 658.74 652.11 660.47C652.33 662.21 651.91 663.97 650.93 665.41C650.57 665.99 650.04 666.44 649.41 666.69C648.78 666.94 648.09 666.98 647.43 666.8C646.78 666.62 646.2 666.24 645.78 665.71C645.36 665.18 645.13 664.52 645.11 663.85C645.11 661 641.62 660.3 639.49 661.21C636.14 662.66 633.68 666.71 631.2 669.33C625.42 675.51 619.15 681.21 612.44 686.36C588.62 704.68 558.87 718.3 528.5 719.29C519.92 719.76 511.34 718.44 503.3 715.41C495.61 712.21 488.49 707.78 482.22 702.3C476.191 697.09 470.752 691.25 465.993 684.86C464.83 683.33 463.648 681.73 462.485 680.06C461.322 681.73 460.14 683.33 458.977 684.86C454.218 691.25 448.779 697.09 442.755 702.3C436.478 707.82 429.342 712.28 421.63 715.51C413.593 718.54 405.011 719.86 396.434 719.38C366.064 718.3 336.353 704.68 312.495 686.45C305.782 681.3 299.507 675.61 293.734 669.42C291.312 666.81 288.792 662.76 285.439 661.31C283.307 660.4 279.838 661.09 279.819 663.94C279.803 664.62 279.568 665.27 279.15 665.81C278.732 666.34 278.152 666.72 277.498 666.9C276.844 667.07 276.15 667.04 275.521 666.79C274.891 666.54 274.359 666.09 274.004 665.51C273.02 664.06 272.6 662.31 272.825 660.57C273.05 658.84 273.904 657.24 275.225 656.1C276.533 654.75 278.18 653.77 279.994 653.27C281.808 652.78 283.722 652.77 285.536 653.27C292.571 655.21 297.165 662.61 302.204 667.53C312.848 678.19 325.186 687.02 338.718 693.66C352.326 699.97 366.781 704.26 381.627 706.4C389.772 707.92 398.08 708.36 406.338 707.7C413.993 706.72 421.302 703.92 427.657 699.55C434.954 694.62 441.484 688.64 447.038 681.8C449.678 678.62 452.118 675.29 454.345 671.81C454.946 670.88 455.508 669.87 456.07 668.98C455.973 667.86 455.895 666.75 455.76 665.78C455.275 662.14 454.868 658.5 454.558 654.82C453.996 647.98 453.783 641.12 453.88 634.264C453.977 627.407 454.422 620.181 455.217 613.188C455.643 609.643 456.012 606.078 456.69 602.572C456.923 601.332 457.175 600.112 457.465 598.891C456.904 598.92 456.341 598.92 455.779 598.891C413.141 598.891 395.872 545.561 409.614 540.64C423.355 535.72 435.274 539.013 438.549 524.232C441.825 509.451 396.686 537.366 384.282 521.772C381.547 518.267 380.17 513.891 380.406 509.451C356.296 512.435 326.585 515.98 293.909 533.763C246.89 559.334 214.446 603.831 214.446 688.95C214.446 771.4 328.252 819.81 386.143 817.02C403.993 850.69 415.408 857 462.543 857C509.68 857 521.11 850.69 538.96 817.02C596.85 819.81 710.66 771.4 710.66 688.95C710.56 603.85 678.08 559.353 631.04 533.763ZM258.635 641.01C256.207 645.79 254.571 650.93 253.79 656.23C253.196 661.61 253.085 667.03 253.46 672.43C253.447 672.8 253.316 673.16 253.084 673.45C252.852 673.74 252.533 673.95 252.174 674.05C251.814 674.15 251.432 674.13 251.085 673.99C250.737 673.86 250.443 673.61 250.243 673.3C244.293 662.49 246.871 648.12 252.181 637.596C257.627 626.729 267.473 617.043 279.315 613.672C282.435 612.8 284.625 617.546 281.563 619.019C271.662 623.568 263.584 631.321 258.635 641.03V641.01ZM497.35 809.66C490.52 814.68 482.75 818.3 474.507 820.29C466.262 822.29 457.702 822.62 449.325 821.28C441.124 819.98 433.238 817.16 426.068 812.97C418.733 809.2 412.161 804.1 406.687 797.94C405.001 795.86 407.249 792.13 409.807 793.91C416.668 798.83 423.122 803.86 431.127 806.98C444.739 812.47 459.77 813.37 473.939 809.54C480.77 807.61 487.14 804.31 492.66 799.85C498.05 795.38 502.7 789.98 508.17 785.64C509.56 784.53 512.47 785.02 512.2 787.3C511.29 796.79 504.6 804.14 497.35 809.68V809.66ZM674.65 673.3C674.45 673.61 674.16 673.86 673.81 673.99C673.46 674.13 673.08 674.15 672.72 674.05C672.36 673.95 672.04 673.74 671.81 673.45C671.58 673.16 671.45 672.8 671.43 672.43C671.81 667.03 671.7 661.61 671.1 656.23C670.32 650.93 668.69 645.79 666.26 641.01C661.3 631.306 653.22 623.56 643.31 619.019C640.25 617.566 642.44 612.8 645.56 613.672C657.46 617.043 667.3 626.729 672.69 637.596C677.96 648.06 680.6 662.51 674.65 673.24V673.3Z" fill="white"/>
<path d="M481.87 79.532C436.94 78.738 392.054 88.153 348.427 98.633C331.74 102.507 315.208 107.467 298.269 111.283C295.988 111.95 293.576 112.037 291.253 111.535C290.291 111.145 289.435 110.534 288.753 109.752C280.632 101.481 273.248 93.151 264.662 85.402C231.288 54.407 190.626 32.129 147.562 17C203.768 33.04 253.692 61.4 294.993 103.03L295.691 103.65C295.148 103.157 294.476 102.828 293.753 102.701C353.408 84.879 417.327 62.175 481.75 60.083V79.455L481.87 79.532Z" fill="white"/>
<path d="M481.87 60.1599C545.3 62.2529 613 84.9949 669.32 102.779C668.84 102.962 668.4 103.231 668.02 103.573L668.23 103.398C676.76 95.6499 685.19 87.1839 694.21 79.8229C729.59 50.1839 772.18 29.7469 816.15 16.9219C759.95 36.4099 714.03 66.0689 674.4 110.217C671.99 112.697 668.25 111.69 665.44 111.205C633.79 103.631 602.78 94.6619 570.9 88.6949C541.6 83.0969 511.54 78.7569 481.87 79.4549V60.0829V60.1599Z" fill="white"/>
<path d="M396.57 73.8949C436.98 54.5229 482.64 49.3319 526.89 51.6949C515.96 52.1139 505.06 53.1489 494.25 54.7939C472.782 57.8489 451.746 63.4079 431.572 71.3569C421.735 75.3529 412.245 80.1539 403.198 85.7119L396.57 73.8949Z" fill="white"/>
<path d="M16.205 1451.51C12.918 1451.51 10.229 1450.47 8.13702 1448.37C6.04602 1446.28 5 1443.59 5 1440.3V1148.7C5 1145.41 6.04602 1142.72 8.13702 1140.63C10.229 1138.53 12.918 1137.49 16.205 1137.49H152.899C178.595 1137.49 199.66 1141.07 216.093 1148.25C232.526 1155.43 244.627 1165.75 252.395 1179.21C260.463 1192.37 264.496 1208.07 264.496 1226.31C264.496 1237.08 262.405 1246.65 258.222 1255.02C254.337 1263.1 249.407 1269.83 243.432 1275.21C237.755 1280.59 232.377 1284.48 227.297 1286.87C238.651 1292.26 248.661 1301.08 257.325 1313.34C266.289 1325.6 270.771 1339.96 270.771 1356.41C270.771 1376.15 266.289 1393.19 257.325 1407.55C248.661 1421.61 235.813 1432.52 218.782 1440.3C202.05 1447.78 181.434 1451.51 156.933 1451.51H16.205ZM85.224 1393.19H147.969C160.817 1393.19 170.528 1389.46 177.101 1381.98C183.674 1374.5 186.961 1365.98 186.961 1356.41C186.961 1345.94 183.525 1337.12 176.653 1329.94C170.08 1322.76 160.518 1319.17 147.969 1319.17H85.224V1393.19ZM85.224 1262.2H143.936C156.186 1262.2 165.299 1259.06 171.275 1252.78C177.549 1246.5 180.687 1238.42 180.687 1228.55C180.687 1218.98 177.549 1211.21 171.275 1205.23C165.299 1198.95 156.186 1195.81 143.936 1195.81H85.224V1262.2Z" fill="white"/>
<path d="M331.769 1451.51C328.482 1451.51 325.793 1450.47 323.701 1448.37C321.61 1446.28 320.564 1443.59 320.564 1440.3V1148.7C320.564 1145.41 321.61 1142.72 323.701 1140.63C325.793 1138.53 328.482 1137.49 331.769 1137.49H448.296C477.58 1137.49 502.53 1142.27 523.14 1151.84C543.76 1161.11 559.59 1174.87 570.65 1193.11C581.7 1211.06 587.68 1233.34 588.58 1259.96C588.87 1273.12 589.02 1284.63 589.02 1294.5C589.02 1304.37 588.87 1315.73 588.58 1328.59C587.38 1356.41 581.4 1379.44 570.65 1397.68C560.19 1415.92 544.8 1429.53 524.49 1438.5C504.47 1447.18 479.82 1451.51 450.536 1451.51H331.769ZM400.788 1386.91H448.296C461.143 1386.91 471.75 1384.97 480.12 1381.08C488.78 1376.89 495.21 1370.46 499.39 1361.79C503.87 1353.12 506.26 1341.75 506.56 1327.7C507.16 1319.02 507.46 1311.25 507.46 1304.37C507.75 1297.49 507.75 1290.61 507.46 1283.73C507.46 1276.85 507.16 1269.23 506.56 1260.85C505.96 1240.52 500.58 1225.71 490.42 1216.44C480.56 1206.87 465.775 1202.09 446.055 1202.09H400.788V1386.91Z" fill="white"/>
<path d="M770.01 1456C741.62 1456 717.27 1451.36 696.95 1442.09C676.94 1432.82 661.25 1419.21 649.9 1401.27C638.84 1383.33 632.72 1361.04 631.52 1334.43C631.22 1322.16 631.07 1309.01 631.07 1294.95C631.07 1280.89 631.22 1267.43 631.52 1254.57C632.72 1228.55 638.99 1206.57 650.34 1188.63C661.7 1170.38 677.53 1156.63 697.85 1147.36C718.17 1137.79 742.22 1133 770.01 1133C789.73 1133 807.95 1135.54 824.69 1140.63C841.42 1145.41 856.06 1152.59 868.61 1162.16C881.16 1171.43 890.87 1182.8 897.74 1196.25C904.91 1209.41 908.65 1224.37 908.94 1241.12C909.24 1243.81 908.35 1246.05 906.25 1247.84C904.46 1249.64 902.22 1250.54 899.53 1250.54H839.03C835.14 1250.54 832.16 1249.79 830.06 1248.29C827.97 1246.5 826.18 1243.36 824.69 1238.87C820.5 1223.02 813.63 1212.25 804.07 1206.57C794.81 1200.59 783.3 1197.6 769.56 1197.6C753.13 1197.6 740.13 1202.24 730.57 1211.51C721.01 1220.48 715.78 1235.58 714.88 1256.82C713.99 1281.34 713.99 1306.46 714.88 1332.18C715.78 1353.42 721.01 1368.67 730.57 1377.94C740.13 1386.91 753.13 1391.4 769.56 1391.4C783.3 1391.4 794.96 1388.41 804.52 1382.43C814.08 1376.45 820.8 1365.68 824.69 1350.13C825.88 1345.64 827.52 1342.65 829.62 1341.16C832.01 1339.36 835.14 1338.46 839.03 1338.46H899.53C902.22 1338.46 904.46 1339.36 906.25 1341.16C908.35 1342.95 909.24 1345.19 908.94 1347.88C908.65 1364.63 904.91 1379.74 897.74 1393.19C890.87 1406.35 881.16 1417.72 868.61 1427.29C856.06 1436.56 841.42 1443.74 824.69 1448.82C807.95 1453.61 789.73 1456 770.01 1456Z" fill="white"/>
</g>
<defs>
<clipPath id="clip0_235_2">
<rect width="916" height="1457" fill="white"/>
</clipPath>
</defs>
</svg>
